<svg width="102" height="92" viewBox="0 0 102 92" fill="none" xmlns="http://www.w3.org/2000/svg">
<path d="M36.4286 44.6429C42.2254 44.6429 47.7849 42.3401 51.8839 38.2411C55.9829 34.1421 58.2857 28.5826 58.2857 22.7857C58.2857 16.9889 55.9829 11.4294 51.8839 7.3304C47.7849 3.23139 42.2254 0.928589 36.4286 0.928589C30.6317 0.928589 25.0722 3.23139 20.9732 7.3304C16.8742 11.4294 14.5714 16.9889 14.5714 22.7857C14.5714 28.5826 16.8742 34.1421 20.9732 38.2411C25.0722 42.3401 30.6317 44.6429 36.4286 44.6429ZM0 88.3572C0 78.6957 3.838 69.43 10.6697 62.5983C17.5014 55.7666 26.7671 51.9286 36.4286 51.9286C46.09 51.9286 55.3558 55.7666 62.1875 62.5983C69.0191 69.43 72.8571 78.6957 72.8571 88.3572C72.8571 89.3233 72.4733 90.2499 71.7902 90.9331C71.107 91.6162 70.1804 92 69.2143 92H3.64286C2.67671 92 1.75014 91.6162 1.06697 90.9331C0.3838 90.2499 0 89.3233 0 88.3572Z" fill="#8FBFFA"/>
<path fill-rule="evenodd" clip-rule="evenodd" d="M81.4396 92H98.357C99.3232 92 100.25 91.6162 100.933 90.9331C101.616 90.2499 102 89.3233 102 88.3572C102 83.4249 100.998 78.5441 99.0554 74.0105C97.1128 69.477 94.2698 65.3851 90.6987 61.983C87.1277 58.5808 82.9029 55.9393 78.2806 54.2186C73.6583 52.4978 68.7346 51.7336 63.8082 51.9723C69.4511 56.2116 74.0295 61.7064 77.1808 68.0217C80.3321 74.337 81.9698 81.2993 81.9642 88.3572C81.9642 89.6298 81.7893 90.844 81.4396 92ZM59.2473 43.7176C62.5119 44.701 65.9612 44.9071 69.3196 44.3193C72.678 43.7315 75.8524 42.3663 78.5889 40.3326C81.3254 38.299 83.5483 35.6533 85.0797 32.6072C86.6112 29.561 87.4088 26.1989 87.4088 22.7894C87.4088 19.3799 86.6112 16.0178 85.0797 12.9716C83.5483 9.92547 81.3254 7.27983 78.5889 5.24617C75.8524 3.21252 72.678 1.84724 69.3196 1.25948C65.9612 0.671725 62.5119 0.877781 59.2473 1.86118C64.491 7.56741 67.3984 15.0361 67.3927 22.7858C67.4002 30.5379 64.4927 38.0095 59.2473 43.7176Z" fill="#2859C5"/>
</svg>
