<svg width="11" height="11" viewBox="0 0 11 11" fill="none" xmlns="http://www.w3.org/2000/svg">
<path d="M7.0625 1.53516C7.0625 0.980156 7.5075 0.535156 8.0625 0.535156C8.6175 0.535156 9.0625 0.980156 9.0625 1.53516C9.0625 2.09016 8.6175 2.53516 8.0625 2.53516C7.5075 2.53516 7.0625 2.09016 7.0625 1.53516ZM9.0625 10.5352V7.53516H10.3125L9.0425 3.72016C8.97561 3.52101 8.848 3.34784 8.6776 3.22497C8.5072 3.1021 8.30258 3.03572 8.0925 3.03516H8.0325C7.82224 3.03497 7.61727 3.10105 7.44672 3.22403C7.27618 3.347 7.14873 3.5206 7.0825 3.72016L6.6525 5.01016C7.1925 5.31016 7.5625 5.87516 7.5625 6.53516V10.5352H9.0625ZM5.3125 5.28516C5.7275 5.28516 6.0625 4.95016 6.0625 4.53516C6.0625 4.12016 5.7275 3.78516 5.3125 3.78516C4.8975 3.78516 4.5625 4.12016 4.5625 4.53516C4.5625 4.95016 4.8975 5.28516 5.3125 5.28516ZM1.8125 2.53516C2.3675 2.53516 2.8125 2.09016 2.8125 1.53516C2.8125 0.980156 2.3675 0.535156 1.8125 0.535156C1.2575 0.535156 0.8125 0.980156 0.8125 1.53516C0.8125 2.09016 1.2575 2.53516 1.8125 2.53516ZM2.8125 10.5352V7.03516H3.5625V4.03516C3.5625 3.48516 3.1125 3.03516 2.5625 3.03516H1.0625C0.5125 3.03516 0.0625 3.48516 0.0625 4.03516V7.03516H0.8125V10.5352H2.8125ZM6.0625 10.5352V8.53516H6.5625V6.53516C6.5625 6.12516 6.2225 5.78516 5.8125 5.78516H4.8125C4.4025 5.78516 4.0625 6.12516 4.0625 6.53516V8.53516H4.5625V10.5352H6.0625Z" fill="black"/>
</svg>
