<svg width="12" height="8" viewBox="0 0 12 8" fill="none" xmlns="http://www.w3.org/2000/svg">
<path d="M6.06375 0.797524L4.24875 2.26752C3.94688 2.51127 3.88875 2.95002 4.1175 3.26315C4.35938 3.5969 4.83 3.66252 5.15438 3.4094L7.01625 1.9619C7.1475 1.86065 7.335 1.88315 7.43813 2.0144C7.54125 2.14565 7.51688 2.33315 7.38563 2.43627L6.99375 2.74002L9.6 5.14002V1.60002H9.58687L9.51375 1.55315L8.1525 0.681274C7.86562 0.497524 7.53 0.400024 7.18875 0.400024C6.78 0.400024 6.3825 0.540649 6.06375 0.797524ZM6.49125 3.13002L5.52188 3.88377C4.93125 4.34502 4.07438 4.22502 3.63188 3.61752C3.21563 3.04565 3.32063 2.2469 3.87 1.80252L5.43 0.540649C5.2125 0.448774 4.97813 0.401899 4.74 0.401899C4.3875 0.400024 4.04437 0.505024 3.75 0.700024L2.4 1.60002V5.80002H2.92875L4.6425 7.36377C5.01 7.6994 5.57812 7.67315 5.91375 7.30565C6.01688 7.19127 6.08625 7.05815 6.12188 6.9194L6.44063 7.2119C6.80625 7.54752 7.37625 7.52315 7.71187 7.15752C7.79625 7.06565 7.85813 6.95877 7.8975 6.84815C8.26125 7.0919 8.75625 7.04127 9.06188 6.70752C9.3975 6.3419 9.37313 5.7719 9.0075 5.43627L6.49125 3.13002ZM0.3 1.60002C0.135 1.60002 0 1.73502 0 1.90002V5.80002C0 6.1319 0.268125 6.40002 0.6 6.40002H1.2C1.53188 6.40002 1.8 6.1319 1.8 5.80002V1.60002H0.3ZM0.9 5.20002C0.979565 5.20002 1.05587 5.23163 1.11213 5.28789C1.16839 5.34415 1.2 5.42046 1.2 5.50002C1.2 5.57959 1.16839 5.6559 1.11213 5.71216C1.05587 5.76842 0.979565 5.80002 0.9 5.80002C0.820435 5.80002 0.744129 5.76842 0.687868 5.71216C0.631607 5.6559 0.6 5.57959 0.6 5.50002C0.6 5.42046 0.631607 5.34415 0.687868 5.28789C0.744129 5.23163 0.820435 5.20002 0.9 5.20002ZM10.2 1.60002V5.80002C10.2 6.1319 10.4681 6.40002 10.8 6.40002H11.4C11.7319 6.40002 12 6.1319 12 5.80002V1.90002C12 1.73502 11.865 1.60002 11.7 1.60002H10.2ZM10.8 5.50002C10.8 5.42046 10.8316 5.34415 10.8879 5.28789C10.9441 5.23163 11.0204 5.20002 11.1 5.20002C11.1796 5.20002 11.2559 5.23163 11.3121 5.28789C11.3684 5.34415 11.4 5.42046 11.4 5.50002C11.4 5.57959 11.3684 5.6559 11.3121 5.71216C11.2559 5.76842 11.1796 5.80002 11.1 5.80002C11.0204 5.80002 10.9441 5.76842 10.8879 5.71216C10.8316 5.6559 10.8 5.57959 10.8 5.50002Z" fill="black"/>
</svg>
