<svg width="11" height="10" viewBox="0 0 11 10" fill="none" xmlns="http://www.w3.org/2000/svg">
<path d="M9.87891 1.8586C9.72183 1.4949 9.49534 1.16531 9.21211 0.88829C8.92867 0.610445 8.59449 0.389646 8.22773 0.237899C7.84743 0.079922 7.43954 -0.000939593 7.02773 8.23696e-06C6.45 8.23696e-06 5.88633 0.158211 5.39648 0.457039C5.2793 0.528524 5.16797 0.60704 5.0625 0.692586C4.95703 0.60704 4.8457 0.528524 4.72852 0.457039C4.23867 0.158211 3.675 8.23696e-06 3.09727 8.23696e-06C2.68125 8.23696e-06 2.27812 0.0796958 1.89727 0.237899C1.5293 0.390243 1.19766 0.609383 0.912891 0.88829C0.629293 1.165 0.402748 1.49466 0.246094 1.8586C0.0832031 2.23712 0 2.63907 0 3.05274C0 3.44298 0.0796875 3.84962 0.237891 4.26329C0.370313 4.60899 0.560156 4.96759 0.802734 5.3297C1.18711 5.90274 1.71562 6.5004 2.37187 7.10626C3.45937 8.11056 4.53633 8.80431 4.58203 8.83243L4.85977 9.01056C4.98281 9.08907 5.14102 9.08907 5.26406 9.01056L5.5418 8.83243C5.5875 8.80313 6.66328 8.11056 7.75195 7.10626C8.4082 6.5004 8.93672 5.90274 9.32109 5.3297C9.56367 4.96759 9.75469 4.60899 9.88594 4.26329C10.0441 3.84962 10.1238 3.44298 10.1238 3.05274C10.125 2.63907 10.0418 2.23712 9.87891 1.8586Z" fill="black"/>
</svg>
