<svg width="10" height="10" viewBox="0 0 10 10" fill="none" xmlns="http://www.w3.org/2000/svg">
<path d="M9.1875 2.53516H7.3125C7.3125 1.93842 7.07545 1.36612 6.65349 0.944166C6.23153 0.522209 5.65924 0.285156 5.0625 0.285156C4.46576 0.285156 3.89347 0.522209 3.47151 0.944166C3.04955 1.36612 2.8125 1.93842 2.8125 2.53516H0.9375C0.738588 2.53516 0.547822 2.61417 0.40717 2.75483C0.266518 2.89548 0.1875 3.08624 0.1875 3.28516V8.91016C0.1875 9.10907 0.266518 9.29983 0.40717 9.44049C0.547822 9.58114 0.738588 9.66016 0.9375 9.66016H9.1875C9.38641 9.66016 9.57718 9.58114 9.71783 9.44049C9.85848 9.29983 9.9375 9.10907 9.9375 8.91016V3.28516C9.9375 3.08624 9.85848 2.89548 9.71783 2.75483C9.57718 2.61417 9.38641 2.53516 9.1875 2.53516ZM5.0625 1.03516C5.46032 1.03516 5.84186 1.19319 6.12316 1.4745C6.40446 1.7558 6.5625 2.13733 6.5625 2.53516H3.5625C3.5625 2.13733 3.72054 1.7558 4.00184 1.4745C4.28314 1.19319 4.66468 1.03516 5.0625 1.03516Z" fill="black"/>
</svg>
